<svg xmlns="http://www.w3.org/2000/svg" width="288" height="57" viewBox="0 0 288 57">
    <g fill="none" fill-rule="nonzero">
        <path fill="#F25238" d="M17.387 9.22l6.393-6.44A8.755 8.755 0 0 1 29.99.192c2.33 0 4.563.931 6.21 2.588l.184.185a8.864 8.864 0 0 1 2.572 6.248 8.864 8.864 0 0 1-2.572 6.248l-6.394 6.433L17.387 9.22z"/>
        <path fill="#F68774" d="M34.777 26.715l6.394-6.433a8.755 8.755 0 0 1 6.21-2.588c2.33 0 4.563.93 6.21 2.588l.183.184a8.864 8.864 0 0 1 2.573 6.249 8.864 8.864 0 0 1-2.573 6.248l-6.4 6.433-12.603-12.681h.006zM0 26.715l6.394-6.433a8.755 8.755 0 0 1 6.21-2.588c2.329 0 4.563.93 6.21 2.588l.183.184a8.864 8.864 0 0 1 2.573 6.249 8.864 8.864 0 0 1-2.573 6.248l-6.393 6.433L0 26.715z"/>
        <path fill="#FCD3CD" d="M17.387 44.21l6.393-6.433a8.755 8.755 0 0 1 6.21-2.588c2.33 0 4.563.93 6.21 2.588l.184.185a8.864 8.864 0 0 1 2.572 6.248 8.864 8.864 0 0 1-2.572 6.248l-6.394 6.427L17.387 44.21z"/>
        <g fill="#30323B">
            <path d="M86.033 39.767H74.998V27.69h10.98c4.382 0 7.025 2.23 7.025 5.988 0 3.59-2.537 6.087-6.978 6.087l.008.002zM74.998 12.882h10.168c3.356 0 5.624 1.634 5.624 4.95 0 2.67-1.838 5.165-5.515 5.165H74.998V12.882zm15.468 12.142c3.463-1.47 5.573-4.3 5.573-7.837 0-5.388-4.272-8.979-11.035-8.979H70.551a.748.748 0 0 0-.74.751v34.734c0 .415.334.751.746.751h15.046c8.438 0 12.603-4.951 12.603-10.23 0-5.561-3.355-8.381-7.738-9.2l-.002.01zM249.563 40.748c-4.757 0-7.303-3.702-7.303-8.109s2.536-8.107 7.303-8.107c4.767 0 7.304 3.7 7.304 8.107 0 4.407-2.539 8.109-7.304 8.109zm0-20.574c-7.517 0-12.386 5.607-12.386 12.463 0 6.856 4.88 12.463 12.386 12.463 7.507 0 12.38-5.607 12.38-12.463 0-6.856-4.861-12.463-12.38-12.463zM190.562 40.748c-4.76 0-7.304-3.702-7.304-8.109s2.537-8.107 7.304-8.107 7.303 3.7 7.303 8.107c0 4.407-2.538 8.109-7.303 8.109zm0-20.574c-7.52 0-12.387 5.607-12.387 12.463 0 6.856 4.868 12.463 12.387 12.463 7.518 0 12.386-5.607 12.386-12.463 0-6.856-4.868-12.463-12.386-12.463zM227.048 35.852c-.955 2.854-3.265 4.896-6.798 4.896a7.571 7.571 0 0 1-3.032-.596c-2.627-1.309-4.242-4.272-4.242-7.51 0-3.236 1.617-6.198 4.242-7.506a7.504 7.504 0 0 1 3.032-.596c3.533 0 5.84 2.04 6.798 4.895a11.07 11.07 0 0 1 0 6.427v-.01zm-5.744-15.678c-3.008 0-6.317.827-8.33 3.524V9.04a.748.748 0 0 0-.746-.751l-3.581-.014a.748.748 0 0 0-.746.75v23.6c0 6.857 4.826 12.475 12.345 12.475 7.519 0 12.385-5.606 12.385-12.462a13.226 13.226 0 0 0-.237-2.526c-1.003-6.072-5.604-9.93-11.096-9.93l.006-.009zM142.73 20.174c-.346 0-.693.02-1.038.058-6.5.354-9.984 4.073-10.264 10.842a6.085 6.085 0 0 0-.028.524v12.536c0 .415.334.751.746.751h3.595a.75.75 0 0 0 .748-.75v-12.64c0-3.7 2.325-6.693 6.382-6.693 4.056 0 6.12 2.83 6.12 6.64v12.692c0 .415.333.751.745.751h3.573a.748.748 0 0 0 .746-.75v-12.91c0-6.423-3.811-11.049-11.33-11.049l.006-.002zM287.629 42.339l-.96-1.144-.055-.072-7.193-8.54 5.695-6.824.05-.041.544-.67.79-.955c.096-.11.183-.228.262-.352l.737-.907a.756.756 0 0 0-.105-1.057l-2.286-1.877a.74.74 0 0 0-1.046.106l-.813.993c-.052.05-.107.089-.154.145l-6.441 8.051-5.075-6.355-.022-.03-1.332-1.666c-.03-.032-.064-.056-.091-.086l-.887-1.104a.745.745 0 0 0-1.048-.107l-2.323 1.904a.756.756 0 0 0-.107 1.057l1.043 1.25.017.023 7.075 8.49-5.586 6.634-1.607 1.908c-.096.11-.184.227-.263.35l-.74.894a.756.756 0 0 0 .105 1.056l2.34 1.927a.743.743 0 0 0 1.049-.105l.936-1.152.03-.03.366-.457 1.011-1.245a.418.418 0 0 0 .026-.052l5.089-6.355 6.49 8.107.012.014.945 1.191a.74.74 0 0 0 1.045.102l2.386-1.986a.75.75 0 0 0 .095-1.055l-.004.022zM175.194 20.822h-6.014v-8.937a.75.75 0 0 0-.748-.751h-3.591a.748.748 0 0 0-.746.75v8.938h-5.456a.744.744 0 0 0-.528.218.753.753 0 0 0-.22.53v2.743c0 .415.334.751.746.751h5.466V44.13c0 .415.334.751.746.751h3.59a.75.75 0 0 0 .749-.75V25.063h6.014a.748.748 0 0 0 .746-.75v-2.74c.001-.199-.077-.39-.217-.53a.744.744 0 0 0-.527-.222h-.01zM107.778 30.297c.487-3.376 3.028-6.04 6.763-6.04 3.68 0 6.119 2.781 6.545 6.04h-13.308zm6.763-10.129c-6.978 0-12.118 5.333-12.118 12.463 0 6.804 4.273 12.463 12.335 12.463 3.902 0 7.572-1.571 9.627-3.973.379-.435.975-1.034.65-1.47-.593-.794-1.238-1.344-2.11-2.122-.487-.433-1.245.381-1.677.814-1.776 1.686-3.462 2.67-6.275 2.67-4.489 0-7.025-2.833-7.304-6.587h16.173c1.463 0 1.952-.871 1.952-1.741 0-6.967-4.435-12.513-11.251-12.513l-.002-.004z"/>
        </g>
    </g>
</svg>
