<svg xmlns="http://www.w3.org/2000/svg" xmlns:xlink="http://www.w3.org/1999/xlink" width="121" height="73" viewBox="0 0 121 73"><defs><path id="a" d="M93.785 139.161h-2.974v8.252l-3.07 2.303V139.16h-2.88v11.898h2.591l3.359-2.495v2.495h2.974z"/><path id="b" d="M101.27 139.161h-2.88v11.898h6.046v-.864h-3.167z"/><path id="c" d="M80.256 151.059h-2.878v-12.761L74.21 140.6v10.459h-2.78v-12.761l-3.167 2.302v10.459h-2.878V136.57h2.878v2.687l3.55-2.687h2.4v2.687l3.645-2.687h2.4z"/><path id="d" d="M116.333 150.963v-11.802h2.879v11.802z"/><path id="e" d="M104.34 139.161h9.403v.864h-3.262v11.034h-2.879v-11.034h-3.262z"/><path id="f" d="M123.818 138.49c0-1.152 1.343-1.92 2.686-1.92h4.414v2.591h-1.152v-1.535h-3.07v12.377h1.343c.96 0 1.727-.767 1.727-1.535v-.863h1.152v.863c0 1.344-1.343 2.495-2.879 2.495h-4.221v-12.474z"/><path id="g" d="M134.18 139.161h2.879v5.277l3.07-2.303v-2.974h2.974v11.898h-2.974v-7.772l-3.07 2.303v5.469h-2.879z"/><path id="h" d="M161.142 150.963v-11.802h2.879v11.802z"/><path id="i" d="M171.505 140.025v10.266h.863c.864 0 1.535-.48 1.535-1.151v-.96h1.056v.96c0 1.151-1.248 1.919-2.59 1.919h-3.647v-10.363c0-.863 1.151-1.439 1.823-1.439h4.414v2.207h-1.056v-1.44z"/><path id="j" d="M178.413 139.161h6.045v.864h-3.167v3.838h2.591v.767h-2.59v5.565h3.166v.864h-6.045z"/><path id="k" d="M154.521 139.161h-4.797c-1.056 0-2.015.672-2.015 1.535v8.828c0 .767.767 1.535 2.015 1.535h4.893c.864 0 1.92-.768 1.92-1.535v-8.828c0-.767-.96-1.535-2.016-1.535zm-4.03.864h3.167v10.266h-3.167z"/><path id="l" d="M124.489 90.226l-8.732 9.308 8.732 33.486z"/><path id="m" d="M81.408 99.438l1.439 10.938 40.011 22.74z"/><path id="n" d="M122.858 133.116l-26.77-29.265-14.68-4.413z"/><path id="o" d="M121.419 133.308l-40.875-22.164-15.544.383z"/><path id="p" d="M65 111.528l3.838 8.251 52.58 13.53z"/><path id="q" d="M102.133 92.53l-3.55 10.554 25.138 29.936z"/><path id="r" d="M123.721 133.02l-10.746-33.103-10.842-7.388z"/><path id="s" d="M124.49 90.226l8.635 9.308-8.636 33.486z"/><path id="t" d="M167.379 99.438l-1.344 10.938-39.819 22.74z"/><path id="u" d="M126.216 133.116l26.386-29.265 14.777-4.413z"/><path id="v" d="M127.56 133.308l41.066-22.164 15.736.288z"/><path id="w" d="M184.362 111.431l-4.03 8.348-52.773 13.53z"/><path id="x" d="M146.462 92.53l3.454 10.554-24.659 29.936z"/><path id="y" d="M125.257 133.02l10.746-33.103 10.459-7.388z"/><path id="z" d="M86.11 156.72v5.757h2.014v-.672h-1.247v-1.919h1.151v-.671h-1.151v-1.824h1.247v-.671z"/><path id="A" d="M92.058 158.063v-.096l1.343 4.51h.768v-5.757H93.4v2.015l.192 2.303v.096l-1.439-4.414h-.672v5.757h.768v-2.111l-.096-1.92z"/><path id="B" d="M97.815 162.477h.768v-2.878l1.055 2.878h.768l-1.056-2.878c.672-.096.768-.96.768-1.536 0-1.439-.864-1.535-1.44-1.535h-.959v5.949zm.768-3.262v-1.92h.096c.575 0 .671.48.671.96 0 .672-.192 1.056-.767.96z"/><path id="C" d="M103.668 162.573v-5.853h.768v5.853z"/><path id="D" d="M110.384 156.816c-.192-.096-.384-.192-.671-.192-1.536 0-1.727 1.92-1.727 3.07 0 1.248.191 2.88 1.823 2.88.191 0 .383 0 .575-.193v-.671c-.192.096-.288.096-.48.096-1.055 0-1.15-1.44-1.15-2.207 0-.768 0-2.303 1.055-2.303.191 0 .383.096.48.192v-.672z"/><path id="E" d="M113.647 156.72v5.757h.767v-2.879h1.152v2.879h.767v-5.757h-.767v2.207h-1.152v-2.207z"/><path id="F" d="M119.98 162.573v-5.853h.767v5.853z"/><path id="G" d="M125.065 158.063v-.096l1.343 4.51h.672v-5.757h-.768v2.015l.192 2.303v.096l-1.343-4.414h-.768v5.757h.768v-2.111l-.096-1.92z"/><path id="H" d="M132.165 159.407v.671h.671v.288c0 1.344-.383 1.44-.671 1.44-.384 0-.672-.192-.672-2.207 0-1.44 0-2.303.672-2.303.48 0 .576.384.671.767l.768-.287c-.192-.768-.576-1.152-1.44-1.152-1.342 0-1.438 1.344-1.438 2.975 0 1.63.191 2.974 1.535 2.974 1.535 0 1.343-1.919 1.343-3.07v-.096z"/><path id="I" d="M141.28 156.72v5.757h2.111v-.672h-1.343v-5.085z"/><path id="J" d="M146.558 162.573v-5.853h.767v5.853z"/><path id="K" d="M150.492 156.72l1.151 5.757h.672l1.055-5.757h-.672l-.383 2.015-.288 1.919v.384h-.096l-.672-4.318z"/><path id="L" d="M156.632 156.72v5.757h2.111v-.672H157.4v-1.919h1.151v-.671H157.4v-1.824h1.343v-.671z"/><path id="M" d="M163.829 156.816c-.288-.192-.48-.192-.864-.192-.863 0-1.343.672-1.343 1.535 0 1.536 1.631 1.728 1.631 2.879 0 .48-.192.768-.672.768-.287 0-.575-.096-.767-.288v.767c.192.192.575.288.863.288.864 0 1.344-.672 1.344-1.535 0-.768-.288-1.151-.864-1.727l-.576-.672c-.192-.192-.192-.384-.192-.671 0-.384.288-.768.672-.768.288 0 .48.096.672.288z"/></defs><use xlink:href="#a" transform="translate(-64 -90)"/><use xlink:href="#b" transform="translate(-64 -90)"/><use xlink:href="#c" transform="translate(-64 -90)"/><use xlink:href="#d" transform="translate(-64 -90)"/><use xlink:href="#e" transform="translate(-64 -90)"/><use xlink:href="#f" transform="translate(-64 -90)"/><use xlink:href="#g" transform="translate(-64 -90)"/><use xlink:href="#h" transform="translate(-64 -90)"/><use xlink:href="#i" transform="translate(-64 -90)"/><use xlink:href="#j" transform="translate(-64 -90)"/><use xlink:href="#k" transform="translate(-64 -90)"/><use fill="#cc6b39" xlink:href="#l" transform="translate(-64 -90)"/><use fill="#fff" fill-opacity="0" stroke="#cc6b39" stroke-miterlimit="50" stroke-width=".5" xlink:href="#l" transform="translate(-64 -90)"/><use fill="#822a85" xlink:href="#m" transform="translate(-64 -90)"/><use fill="#fff" fill-opacity="0" stroke="#822a85" stroke-miterlimit="50" stroke-width=".5" xlink:href="#m" transform="translate(-64 -90)"/><use fill="#ec008c" xlink:href="#n" transform="translate(-64 -90)"/><use fill="#fff" fill-opacity="0" stroke="#ec008c" stroke-miterlimit="50" stroke-width=".5" xlink:href="#n" transform="translate(-64 -90)"/><use fill="#5f6db3" xlink:href="#o" transform="translate(-64 -90)"/><use fill="#fff" fill-opacity="0" stroke="#5f6db3" stroke-miterlimit="50" stroke-width=".5" xlink:href="#o" transform="translate(-64 -90)"/><use fill="#46065c" xlink:href="#p" transform="translate(-64 -90)"/><use fill="#fff" fill-opacity="0" stroke="#46065c" stroke-miterlimit="50" stroke-width=".5" xlink:href="#p" transform="translate(-64 -90)"/><use fill="#b82837" xlink:href="#q" transform="translate(-64 -90)"/><use fill="#fff" fill-opacity="0" stroke="#b82837" stroke-miterlimit="50" stroke-width=".5" xlink:href="#q" transform="translate(-64 -90)"/><use fill="#ed1c24" xlink:href="#r" transform="translate(-64 -90)"/><use fill="#fff" fill-opacity="0" stroke="#ed1c24" stroke-miterlimit="50" stroke-width=".5" xlink:href="#r" transform="translate(-64 -90)"/><use fill="#f37021" xlink:href="#s" transform="translate(-64 -90)"/><use fill="#fff" fill-opacity="0" stroke="#f37021" stroke-miterlimit="50" stroke-width=".5" xlink:href="#s" transform="translate(-64 -90)"/><use fill="#50b848" xlink:href="#t" transform="translate(-64 -90)"/><use fill="#fff" fill-opacity="0" stroke="#50b848" stroke-miterlimit="50" stroke-width=".5" xlink:href="#t" transform="translate(-64 -90)"/><use fill="#639144" xlink:href="#u" transform="translate(-64 -90)"/><use fill="#fff" fill-opacity="0" stroke="#639144" stroke-miterlimit="50" stroke-width=".5" xlink:href="#u" transform="translate(-64 -90)"/><use fill="#007196" xlink:href="#v" transform="translate(-64 -90)"/><use fill="#fff" fill-opacity="0" stroke="#007196" stroke-miterlimit="50" stroke-width=".5" xlink:href="#v" transform="translate(-64 -90)"/><use fill="#00abbd" xlink:href="#w" transform="translate(-64 -90)"/><use fill="#fff" fill-opacity="0" stroke="#00abbd" stroke-miterlimit="50" stroke-width=".5" xlink:href="#w" transform="translate(-64 -90)"/><use fill="#fdb933" xlink:href="#x" transform="translate(-64 -90)"/><use fill="#fff" fill-opacity="0" stroke="#fdb933" stroke-miterlimit="50" stroke-width=".5" xlink:href="#x" transform="translate(-64 -90)"/><use fill="#e28f38" xlink:href="#y" transform="translate(-64 -90)"/><use fill="#fff" fill-opacity="0" stroke="#e28f38" stroke-miterlimit="50" stroke-width=".5" xlink:href="#y" transform="translate(-64 -90)"/><use xlink:href="#z" transform="translate(-64 -90)"/><use xlink:href="#A" transform="translate(-64 -90)"/><use xlink:href="#B" transform="translate(-64 -90)"/><use xlink:href="#C" transform="translate(-64 -90)"/><use xlink:href="#D" transform="translate(-64 -90)"/><use xlink:href="#E" transform="translate(-64 -90)"/><use xlink:href="#F" transform="translate(-64 -90)"/><use xlink:href="#G" transform="translate(-64 -90)"/><use xlink:href="#H" transform="translate(-64 -90)"/><use xlink:href="#I" transform="translate(-64 -90)"/><use xlink:href="#J" transform="translate(-64 -90)"/><use xlink:href="#K" transform="translate(-64 -90)"/><use xlink:href="#L" transform="translate(-64 -90)"/><use xlink:href="#M" transform="translate(-64 -90)"/></svg>